#N canvas 57 51 1200 755 12;
#X declare -lib mpu6050;
#X obj 173 25 loadbang;
#X obj 338 202 array define bikebeat;
#X obj 233 201 soundfiler;
#X msg 233 165 read -resize bikebeat.wav bikebeat;
#X obj 118 165 samplerate~;
#X floatatom 118 194 10 0 0 0 - - -;
#X obj 94 249 f;
#X obj 94 282 /;
#X floatatom 94 311 5 0 0 0 - - -;
#X obj 59 667 dac~;
#X obj 173 54 t b b;
#X obj 94 131 r loop_point;
#X obj 376 348 hsl 256 20 0.5 2 0 0 empty empty speed_n_volume -2 -8
0 10 -262144 -1 -1 0 1;
#X obj 374 271 loadbang;
#X obj 70 532 *~;
#X obj 94 345 pow -1;
#X floatatom 94 374 5 0 0 0 - - -;
#X obj 70 561 tabread4~ bikebeat;
#X obj 70 443 *;
#X obj 70 503 phasor~ 1.043;
#X obj 70 472 sig~;
#X obj 373 383 / 2;
#X floatatom 373 412 5 0 0 0 - - -;
#X obj 373 440 - 0.25;
#X obj 373 469 pack \$1 50;
#X obj 373 498 line~;
#X obj 274 24 declare -lib mpu6050;
#X obj 379 76 tgl 15 0 empty empty empty 17 7 0 10 -262144 -1 -1 1
1;
#X msg 587 135 \; pd dsp \$1 \;;
#X obj 659 282 i;
#X obj 689 282 i;
#X obj 719 282 i;
#X obj 749 282 i;
#X obj 779 282 i;
#X obj 809 282 i;
#X obj 726 588 clip -1 1;
#X obj 726 383 / 32768;
#X obj 1019 382 - 1;
#X obj 905 499 spigot;
#X obj 848 460 +;
#X obj 877 460 f;
#X obj 810 415 t b f;
#X obj 905 600 f;
#X obj 1003 626 print calibration;
#X obj 1019 413 == 1;
#X obj 726 633 -;
#X obj 842 529 tgl 15 0 empty empty empty 17 7 0 10 -262144 -1 -1 0
1;
#X obj 726 566 spigot;
#X obj 781 35 loadbang;
#X obj 514 434 f;
#X obj 514 456 +;
#X obj 537 396 t b f;
#X obj 514 478 clip 0.5 2;
#X obj 726 328 t f b;
#X obj 905 573 /;
#X obj 977 382 f;
#X obj 655 69 print calibration;
#X obj 781 92 s cal_count;
#X obj 995 348 r cal_count;
#X obj 923 546 r cal_count;
#X text 856 433 sum values;
#X text 955 580 divide to get average value;
#X text 1049 394 count down to zero;
#X text 761 666 after calibration always subtract average value;
#X text 823 59 number of values to use for calibration;
#X text 465 504 add acc to current speed_n_volume value;
#X msg 374 300 0.5;
#X obj 706 686 / 10;
#X obj 639 661 moses 0.05;
#X obj 602 700 moses -0.03;
#X obj 602 725 / 5;
#X msg 781 69 100;
#X obj 594 190 metro 20;
#X obj 70 594 *~ 3;
#X obj 689 249 mpu6050 104;
#X connect 0 0 10 0;
#X connect 2 0 7 1;
#X connect 2 0 14 1;
#X connect 3 0 2 0;
#X connect 4 0 5 0;
#X connect 5 0 6 1;
#X connect 6 0 7 0;
#X connect 7 0 8 0;
#X connect 8 0 15 0;
#X connect 10 0 6 0;
#X connect 10 1 3 0;
#X connect 10 1 4 0;
#X connect 10 1 27 0;
#X connect 11 0 6 0;
#X connect 12 0 18 0;
#X connect 12 0 21 0;
#X connect 12 0 49 1;
#X connect 13 0 66 0;
#X connect 14 0 17 0;
#X connect 15 0 16 0;
#X connect 16 0 18 1;
#X connect 17 0 73 0;
#X connect 18 0 20 0;
#X connect 19 0 14 0;
#X connect 20 0 19 0;
#X connect 21 0 22 0;
#X connect 22 0 23 0;
#X connect 23 0 24 0;
#X connect 24 0 25 0;
#X connect 27 0 28 0;
#X connect 27 0 72 0;
#X connect 29 0 53 0;
#X connect 35 0 45 0;
#X connect 36 0 41 0;
#X connect 36 0 47 0;
#X connect 37 0 44 0;
#X connect 37 0 55 1;
#X connect 38 0 46 0;
#X connect 38 0 54 0;
#X connect 39 0 40 1;
#X connect 40 0 39 1;
#X connect 40 0 38 0;
#X connect 41 0 40 0;
#X connect 41 1 39 0;
#X connect 42 0 43 0;
#X connect 42 0 45 1;
#X connect 44 0 38 1;
#X connect 45 0 68 0;
#X connect 46 0 47 1;
#X connect 47 0 35 0;
#X connect 48 0 71 0;
#X connect 48 0 56 0;
#X connect 49 0 50 0;
#X connect 50 0 52 0;
#X connect 51 0 49 0;
#X connect 51 1 50 1;
#X connect 52 0 12 0;
#X connect 53 0 36 0;
#X connect 53 1 55 0;
#X connect 54 0 42 0;
#X connect 55 0 37 0;
#X connect 58 0 55 1;
#X connect 59 0 54 1;
#X connect 66 0 12 0;
#X connect 67 0 51 0;
#X connect 68 0 69 0;
#X connect 68 1 67 0;
#X connect 69 0 70 0;
#X connect 70 0 51 0;
#X connect 71 0 57 0;
#X connect 72 0 74 0;
#X connect 73 0 9 0;
#X connect 73 0 9 1;
#X connect 74 0 29 0;
#X connect 74 1 30 0;
#X connect 74 2 31 0;
#X connect 74 3 32 0;
#X connect 74 4 33 0;
#X connect 74 5 34 0;
